simulation
nRows=24
nColumns=15
endheader
time  TH_x TH_y TH_z SC_y  SC_z  SC_x  AC_y  AC_z  AC_x  GH_y  GH_z  GH_yy  EL_x  PS_y
0.850000  0.000000  0.000000  0.000000  -28.778012  -0.836469  9.694562  64.116900  14.062784  -3.866874  44.530702  41.930207  -30.881278  24.563742  0.000000
0.860000  0.000000  0.000000  0.000000  -28.793624  -0.807633  9.792227  64.213155  14.274791  -3.794098  44.749631  42.307651  -31.423705  24.535872  0.000000
0.870000  0.000000  0.000000  0.000000  -28.809397  -0.778638  9.888982  64.308532  14.486655  -3.721299  44.966562  42.682167  -31.960612  24.507997  0.000000
0.880000  0.000000  0.000000  0.000000  -28.825323  -0.749500  9.984802  64.403013  14.698305  -3.648507  45.181453  43.053685  -32.491914  24.480130  0.000000
0.890000  0.000000  0.000000  0.000000  -28.841394  -0.720230  10.079665  64.496579  14.909670  -3.575747  45.394265  43.422135  -33.017528  24.452281  0.000000
0.900000  0.000000  0.000000  0.000000  -28.857600  -0.690842  10.173548  64.589215  15.120679  -3.503047  45.604957  43.787448  -33.537369  24.424461  0.000000
0.910000  0.000000  0.000000  0.000000  -28.873933  -0.661349  10.266428  64.680902  15.331261  -3.430433  45.813490  44.149555  -34.051356  24.396680  0.000000
0.920000  0.000000  0.000000  0.000000  -28.890384  -0.631764  10.358283  64.771624  15.541347  -3.357932  46.019825  44.508389  -34.559409  24.368949  0.000000
0.930000  0.000000  0.000000  0.000000  -28.906945  -0.602100  10.449091  64.861365  15.750870  -3.285569  46.223924  44.863884  -35.061448  24.341277  0.000000
0.940000  0.000000  0.000000  0.000000  -28.923608  -0.572369  10.538831  64.950107  15.959762  -3.213371  46.425750  45.215974  -35.557396  24.313676  0.000000
0.950000  0.000000  0.000000  0.000000  -28.940364  -0.542583  10.627481  65.037836  16.167955  -3.141362  46.625264  45.564596  -36.047175  24.286154  0.000000
0.960000  0.000000  0.000000  0.000000  -28.957205  -0.512756  10.715020  65.124534  16.375384  -3.069568  46.822431  45.909685  -36.530710  24.258722  0.000000
0.970000  0.000000  0.000000  0.000000  -28.974124  -0.482898  10.801429  65.210187  16.581983  -2.998014  47.017214  46.251178  -37.007928  24.231390  0.000000
0.980000  0.000000  0.000000  0.000000  -28.991112  -0.453023  10.886687  65.294778  16.787688  -2.926724  47.209577  46.589015  -37.478756  24.204168  0.000000
0.990000  0.000000  0.000000  0.000000  -29.008160  -0.423142  10.970774  65.378293  16.992435  -2.855722  47.399484  46.923133  -37.943122  24.177064  0.000000
1.000000  0.000000  0.000000  0.000000  -29.025263  -0.393267  11.053671  65.460717  17.196161  -2.785033  47.586901  47.253474  -38.400955  24.150089  0.000000
1.010000  0.000000  0.000000  0.000000  -29.042411  -0.363409  11.135359  65.542036  17.398804  -2.714680  47.771794  47.579978  -38.852187  24.123252  0.000000
1.020000  0.000000  0.000000  0.000000  -29.059597  -0.333580  11.215819  65.622233  17.600303  -2.644687  47.954129  47.902587  -39.296751  24.096562  0.000000
1.030000  0.000000  0.000000  0.000000  -29.076813  -0.303792  11.295034  65.701296  17.800597  -2.575076  48.133873  48.221243  -39.734580  24.070028  0.000000
1.040000  0.000000  0.000000  0.000000  -29.094053  -0.274056  11.372984  65.779211  17.999626  -2.505870  48.310992  48.535892  -40.165608  24.043659  0.000000
1.050000  0.000000  0.000000  0.000000  -29.111308  -0.244382  11.449652  65.855962  18.197331  -2.437092  48.485454  48.846476  -40.589772  24.017464  0.000000
1.060000  0.000000  0.000000  0.000000  -29.128571  -0.214782  11.525021  65.931538  18.393654  -2.368764  48.657228  49.152943  -41.007010  23.991452  0.000000
1.070000  0.000000  0.000000  0.000000  -29.145836  -0.185266  11.599074  66.005925  18.588537  -2.300908  48.826282  49.455238  -41.417260  23.965631  0.000000
1.080000  0.000000  0.000000  0.000000  -29.163094  -0.155846  11.671794  66.079109  18.781923  -2.233545  48.992586  49.753308  -41.820463  23.940010  0.000000
